<?xml version="1.0" encoding="UTF-8" standalone="no"?>
<!-- Created with Inkscape (http://www.inkscape.org/) -->

<svg
   width="500"
   height="899"
   viewBox="0 0 132.29166 237.86042"
   version="1.1"
   id="svg5"
   xml:space="preserve"
   xmlns="http://www.w3.org/2000/svg"
   xmlns:svg="http://www.w3.org/2000/svg"><defs
     id="defs2" /><g
     id="layer5"><path
       style="opacity:1;fill:#6600ff;fill-opacity:1;fill-rule:evenodd;stroke:#000000;stroke-width:0.534759;stroke-dasharray:none;stroke-opacity:1"
       d="m 140.81615,71.498603 c -9.6e-4,-3.734188 -0.1008,-8.285544 -0.22187,-10.114124 l -0.22013,-3.324689 49.75958,0.222611 c 27.36778,0.122436 71.82525,0.323343 98.79439,0.446459 l 49.0348,0.223848 v 9.137322 c 0,5.025526 0.76216,9.375975 0.87407,9.667664 0.18529,0.482864 -9.31001,0.530343 -99.24308,0.530343 h -98.77603 z"
       id="path10315"
       transform="scale(0.26458333)" /><g
       id="layer6" /><g
       id="layer3"><path
         style="opacity:1;fill:#6600ff;fill-opacity:1;fill-rule:evenodd;stroke:#000000;stroke-width:0.421428;stroke-dasharray:none;stroke-opacity:1"
         d="m 60.144891,20.846475 c -0.05914,33.704075 -0.207008,67.407886 -0.192207,84.775845 0.0148,17.36796 0.103514,18.39997 0.354968,19.25513 0.251455,0.85515 0.665463,1.53333 1.242197,1.97552 0.576738,0.44219 1.316037,0.64861 2.025638,0.45689 0.709598,-0.19172 1.389757,-0.78146 1.833326,-2.01982 0.443568,-1.23835 0.65057,-3.12548 0.768875,-20.67067 0.118303,-17.545157 -0.02956,-50.304717 1.3e-5,-83.50751 z"
         id="path7068" /><path
         style="opacity:1;fill:none;fill-opacity:1;fill-rule:evenodd;stroke:#000000;stroke-width:0.422;stroke-dasharray:none;stroke-opacity:1"
         d="m 89.596774,20.935484 c -1.359957,0.02956 -2.720172,0.05913 -10.822468,0.07392 -8.102297,0.01479 -22.946086,0.01479 -31.018677,6e-6 -8.07259,-0.01478 -9.373639,-0.04435 -10.674984,-0.07393"
         id="path7177" /><g
         id="layer4"><path
           style="opacity:1;fill:#b496e3;fill-opacity:1;fill-rule:evenodd;stroke:#000000;stroke-width:0.422;stroke-dasharray:none;stroke-opacity:1"
           d="m 36.725807,15.701613 c 0.02983,1.419619 0.0594,2.838974 0.08871,4.258064 C 24.602171,17.978719 0.17741935,11.975807 0.17741935,11.975807 V 7.4516127 Z"
           id="path11943" /><path
           style="opacity:1;fill:#aa87de;fill-opacity:1;fill-rule:evenodd;stroke:#000000;stroke-width:0.422;stroke-dasharray:none;stroke-opacity:1"
           d="m 89.685483,16.32258 42.580647,10.556451 v 3.991935 L 89.862902,20.048387 Z"
           id="path11945" /></g><g
         id="layer2" /></g><g
       id="layer1"><g
         id="fs-part-pocket"
         transform="matrix(0.35789623,0,0,0.49815668,18.592228,21.013825)"
         style="fill:none;stroke:#000000;stroke-opacity:1"><path
           id="fs-1"
           d="M 62.5,0 0,175 V 335.71 C 0,400 50,400 50,400 h 150 c 50,0 50,-64.29 50,-64.29 V 175 L 187.5,0 Z"
           style="fill:none;stroke:#000000;stroke-opacity:1" /><path
           class="path fabric dashed"
           id="fs-2"
           d="M 125,0 V 210"
           style="fill:none;stroke:#000000;stroke-opacity:1" /><path
           class="fabric sa"
           id="fs-5"
           d="M 51.592815,-0.33271044 -9.42,171.64 -10,175 v 160.71 c 0,38.25 15.33,56.17 29.72,65.19 14.22,8.91 28.43,9.02 29.78,9.09 h 0.02 L 200,410 c 24.79,0 39.47,-12.58 48.19,-27.64 2.06,-3.55 3.77,-7.26 5.18,-10.96 6.52,-17.09 6.59,-34.17 6.63,-35.41 V 335.97 175 L 259.42,171.64 198.65505,-0.51078629 198.40603,-11.424607 51.346109,-11.958834 Z"
           style="fill:none;stroke:#000000;stroke-opacity:1" /></g></g></g><style
     type="text/css"
     id="style9"><![CDATA[ 
text.title-nr{font-size:24pt;font-weight:700;text-anchor:middle;dominant-baseline:reset-size}text.title-name{font-size:7pt;font-weight:500;text-anchor:middle;dominant-baseline:reset-size}text.title-pattern{font-size:4pt;font-weight:500;dominant-baseline:reset-size;text-anchor:middle;font-style:italic}
  /* Sample classes */
  svg.freesewing path.sample {
    stroke-width: 0.75
  }
  svg.freesewing path.sample-focus {
    stroke-width: 1.5; fill: rgba(0,0,0,0.1)
  }

  /* Paperless grid */
  svg.freesewing path.grid {
    fill: none;
    stroke: #555;
    stroke-width: 0.3;
  }
  svg.freesewing path.gridline {
    stroke: #555;
    stroke-width: 0.2;
  }
  svg.freesewing path.gridline-lg {
    stroke: #777;
    stroke-width: 0.2;
    stroke-dasharray: 1.5,1.5;
  }
  svg.freesewing path.gridline-sm {
    stroke: #999;
    stroke-width: 0.1;
  }
  svg.freesewing path.gridline-xs {
    stroke: #999;
    stroke-width: 0.1;
    stroke-dasharray: 0.5,0.5;
  }
  svg.freesewing path.gridbox {
    fill: url(#grid);
  }

  /* Reset */
  svg.freesewing path,
  svg.freesewing circle,
  svg.freesewing rect {
    fill: none;
    stroke: none;
  }

  /* Defaults */
  svg.freesewing path,
  svg.freesewing circle {
    stroke: #000;
    stroke-opacity: 1;
    stroke-width: 0.3;
    stroke-linecap: round;
    stroke-linejoin: round;
  }

  /* Stroke classes */
  svg.freesewing .fabric {
    stroke-width: 0.6;
    stroke: #212121;
  }
  svg.freesewing .lining {
    stroke-width: 0.6;
    stroke: #ff5b77;
  }
  svg.freesewing .interfacing {
    stroke-width: 0.6;
    stroke: #64b5f6;
  }
  svg.freesewing .canvas {
    stroke-width: 0.6;
    stroke: #ff9000;
  }
  svg.freesewing .various {
    stroke-width: 0.6;
    stroke: #4caf50;
  }
  svg.freesewing .note {
    stroke-width: 0.4;
    stroke: #dd60dd;
  }
  svg.freesewing .mark {
    stroke-width: 0.4;
    stroke: blue;
  }
  svg.freesewing .contrast {
    stroke-width: 0.8;
    stroke: red;
  }
  svg.freesewing .stroke-xs {
    stroke-width: 0.1;
  }
  svg.freesewing .stroke-sm {
    stroke-width: 0.2;
  }
  svg.freesewing .stroke-lg {
    stroke-width: 0.6;
  }
  svg.freesewing .stroke-xl {
    stroke-width: 1;
  }
  svg.freesewing .stroke-xxl,
  svg.freesewing .stroke-2xl {
    stroke-width: 2;
  }
  svg.freesewing .stroke-3xl {
    stroke-width: 3;
  }
  svg.freesewing .stroke-4xl {
    stroke-width: 4;
  }

  svg.freesewing .sa {
    stroke-dasharray: 0.4, 0.8;
  }
  svg.freesewing .help {
    stroke-width: 0.2;
    stroke-dasharray: 15, 1.5, 1, 1.5;
  }
  svg.freesewing .dotted {
    stroke-dasharray: 0.4, 0.8;
  }
  svg.freesewing .dashed {
    stroke-dasharray: 1, 1.5;
  }
  svg.freesewing .lashed {
    stroke-dasharray: 6, 6;
  }
  svg.freesewing .hidden {
    stroke: none;
    fill: none;
  }

  /* Fill classes */
  svg.freesewing .fill-fabric {
    fill: #212121;
  }
  svg.freesewing .fill-lining {
    fill: #ff5b77;
  }
  svg.freesewing .fill-interfacing {
    fill: #64b5f6;
  }
  svg.freesewing .fill-canvas {
    fill: #ff9000;
  }
  svg.freesewing .fill-various {
    fill: #4caf50;
  }
  svg.freesewing .fill-note {
    fill: #dd69dd;
  }
  svg.freesewing .fill-mark {
    fill: blue;
  }
  svg.freesewing .fill-contrast {
    fill: red;
  }

  /* Text */
  svg.freesewing text {
    font-size: 5px;
    font-family: -apple-system, system-ui, BlinkMacSystemFont, 'Segoe UI', Roboto, 'Helvetica Neue',
      Arial, sans-serif;
    fill: #000;
    text-anchor: start;
    font-weight: 200;
    dominant-baseline: ideographic;
  }
  svg.freesewing .text-xs {
    font-size: 3px;
  }
  svg.freesewing .text-sm {
    font-size: 4px;
  }
  svg.freesewing .text-lg {
    font-size: 7px;
  }
  svg.freesewing .text-xl {
    font-size: 9px;
  }
  svg.freesewing .text-xxl {
    font-size: 12px;
  }

  svg.freesewing .center {
    text-anchor: middle;
  }
  svg.freesewing .right {
    text-anchor: end;
  }

  /* Bartack */
  svg.freesewing path.bartack {
    stroke-width: 2;
    stroke: #fd7e14;
    stroke-linecap: butt;
  }

]]></style><path
     style="opacity:1;fill:#6600ff;fill-opacity:1;fill-rule:evenodd;stroke:#000000;stroke-width:0.422;stroke-dasharray:none;stroke-opacity:0"
     d="M 37.169355,21.024193 C 29.865857,49.500265 15.258064,107.33871 15.258064,107.33871 l -0.08871,84.71774 0.975807,9.58064 c 0.809301,2.73909 1.360214,5.29302 1.951612,7.2742 l 2.306451,5.05645 2.483872,3.6371 2.48387,2.66129 3.193549,2.48387 3.903225,1.68548 4.258065,0.70968 9.669353,-0.17743 12.419355,0.0887 22.088711,-1e-5 11.088711,1e-5 3.637094,-0.8871 3.459679,-1.50806 2.661292,-2.39516 2.57258,-3.01613 2.48387,-4.70161 1.77419,-4.5242 1.33065,-5.23387 0.79839,-4.70161 0.62096,-5.67742 0.17742,-7.80645 -0.0887,-77.26613 -7.62903,-29.806454 -14.193547,-56.862901 c -1.301076,0.177419 0.448787,-0.04329 -3.637097,0.443548 l 22.266134,86.758067 v 81.16935 l -0.35484,5.94355 -0.79839,4.6129 -0.97581,3.72581 -1.41935,4.96774 -1.59677,3.45968 -1.59678,2.75 -2.661291,2.75 -2.217742,1.68548 -5.145161,1.50807 -21.911292,-0.0887 -29.362902,0.0887 -5.056451,-0.17741 -3.903226,-1.33065 -3.459677,-2.30645 -3.104839,-3.01613 -2.306452,-3.99194 -1.685483,-4.25806 -1.330645,-5.14516 -0.709678,-5.14516 -0.266129,-6.47581 0.08871,-80.28225 8.338708,-32.556457 14.01613,-54.82258 z"
     id="path12709" /></svg>
